<svg width="42" height="42" viewBox="0 0 42 42" fill="none" xmlns="http://www.w3.org/2000/svg">
<g clip-path="url(#clip0_130_482)">
<path d="M18.5391 42H23.4609C24.1405 42 24.6914 41.4491 24.6914 40.7695V31.9922H35.7656C36.4452 31.9922 36.9961 31.4413 36.9961 30.7617V1.23047C36.9961 0.550922 36.4452 0 35.7656 0H6.23438C5.55483 0 5.00391 0.550922 5.00391 1.23047V30.7617C5.00391 31.4413 5.55483 31.9922 6.23438 31.9922H17.3086V40.7695C17.3086 41.4491 17.8595 42 18.5391 42ZM22.2305 39.5391H19.7695V31.9922H22.2305V39.5391ZM7.46484 2.46094H34.5352V29.5312H7.46484V2.46094Z" fill="#FE4B0C"/>
<path d="M24.5676 19.6875H24.6914V23.3789C24.6914 24.0585 25.2423 24.6094 25.9219 24.6094H28.3828C29.0624 24.6094 29.6133 24.0585 29.6133 23.3789C29.6133 22.6994 29.0624 22.1484 28.3828 22.1484H27.1523V18.457C27.1523 17.7775 26.6014 17.2266 25.9219 17.2266H19.7695V8.61328C19.7695 7.93373 19.2186 7.38281 18.5391 7.38281H14.8477C14.1681 7.38281 13.6172 7.93373 13.6172 8.61328C13.6172 9.29283 14.1681 9.84375 14.8477 9.84375H17.3086V12.4285C14.5038 13.0001 12.3867 15.4859 12.3867 18.457C12.3867 21.8494 15.1467 24.6094 18.5391 24.6094C21.5102 24.6094 23.9959 22.4923 24.5676 19.6875ZM14.8477 18.457C14.8477 16.8529 15.8764 15.4852 17.3086 14.9773V18.457C17.3086 19.1366 17.8595 19.6875 18.5391 19.6875H22.0188C21.5109 21.1197 20.1432 22.1484 18.5391 22.1484C16.5036 22.1484 14.8477 20.4925 14.8477 18.457Z" fill="#FE4B0C"/>
</g>
<defs>
<clipPath id="clip0_130_482">
<rect width="42" height="42" fill="white"/>
</clipPath>
</defs>
</svg>
