<svg width="22" height="22" viewBox="0 0 22 22" fill="none" xmlns="http://www.w3.org/2000/svg">
<g clip-path="url(#clip0_217_1362)">
<path d="M20.8185 6.74589H18.8481V5.79816C18.8481 4.58265 17.8592 3.59375 16.6437 3.59375C15.4282 3.59375 14.4393 4.58265 14.4393 5.79816V6.74589H7.00753V5.79816C7.00753 4.58265 6.01864 3.59375 4.80316 3.59375C3.58765 3.59375 2.59875 4.58265 2.59875 5.79816V6.74589H0.628324C0.281322 6.74589 0 7.02721 0 7.37421V12.5377C0 12.8847 0.281322 13.1661 0.628324 13.1661H1.88497V20.1901H1.10041C0.753403 20.1901 0.472081 20.4715 0.472081 20.8185C0.472081 21.1655 0.753403 21.4468 1.10041 21.4468H3.92619C4.27319 21.4468 4.55451 21.1655 4.55451 20.8185C4.55451 20.4715 4.27319 20.1901 3.92619 20.1901H3.14162V16.5171H18.3052V20.1901H17.5206C17.1736 20.1901 16.8923 20.4715 16.8923 20.8185C16.8923 21.1655 17.1736 21.4468 17.5206 21.4468H20.3464C20.6934 21.4468 20.9747 21.1655 20.9747 20.8185C20.9747 20.4715 20.6934 20.1901 20.3464 20.1901H19.5618V13.166H20.8185C21.1655 13.166 21.4468 12.8847 21.4468 12.5377V7.37421C21.4468 7.02721 21.1655 6.74589 20.8185 6.74589ZM13.2609 11.9094L17.168 8.00249H18.9932L15.086 11.9094H13.2609ZM2.45369 11.9094L6.36086 8.00249H6.37921H8.18602L4.27885 11.9094H2.45369ZM9.96326 8.00254H11.7884L7.88124 11.9094H6.05608L9.96326 8.00254ZM13.5656 8.00254H15.3908L11.4836 11.9094H9.65848L13.5656 8.00254ZM15.6959 5.79816C15.6959 5.27557 16.1211 4.8504 16.6436 4.8504C17.1662 4.8504 17.5914 5.27557 17.5914 5.79816V6.74589H15.6959V5.79816ZM3.85536 5.79816C3.85536 5.27557 4.28052 4.8504 4.80312 4.8504C5.32572 4.8504 5.75084 5.27557 5.75084 5.79816V6.74589H3.85536V5.79816ZM4.58359 8.00254L1.25665 11.3292V8.00254H4.58359ZM18.3052 15.2604H3.14162V13.166H18.3052V15.2604ZM16.8633 11.9094L20.1902 8.58273V11.9094H16.8633Z" fill="#FE4B0C"/>
<path d="M4.80215 2.33712C5.14916 2.33712 5.43048 2.05579 5.43048 1.70879V0.628324C5.43048 0.281322 5.14916 0 4.80215 0C4.45515 0 4.17383 0.281322 4.17383 0.628324V1.70879C4.17383 2.05579 4.45515 2.33712 4.80215 2.33712Z" fill="#FE4B0C"/>
<path d="M1.74293 3.30808C1.98839 3.5535 2.38612 3.55346 2.6315 3.30808C2.87684 3.0627 2.87684 2.66488 2.6315 2.4195L1.8675 1.6555C1.62216 1.41016 1.22431 1.41016 0.978927 1.6555C0.733587 1.90088 0.733587 2.2987 0.978927 2.54408L1.74293 3.30808Z" fill="#FE4B0C"/>
<path d="M7.86168 3.30808L8.62568 2.54413C8.87106 2.29879 8.87106 1.90097 8.62568 1.65555C8.38029 1.41012 7.98248 1.41017 7.7371 1.65555L6.9731 2.41951C6.72772 2.66485 6.72772 3.06266 6.9731 3.30808C7.2184 3.55342 7.61625 3.55347 7.86168 3.30808Z" fill="#FE4B0C"/>
<path d="M16.6439 2.33712C16.991 2.33712 17.2723 2.05579 17.2723 1.70879V0.628324C17.2723 0.281322 16.991 0 16.6439 0C16.2969 0 16.0156 0.281322 16.0156 0.628324V1.70879C16.0156 2.05579 16.2969 2.33712 16.6439 2.33712Z" fill="#FE4B0C"/>
<path d="M13.5847 3.30807C13.83 3.55341 14.2279 3.55349 14.4733 3.30807C14.7187 3.06269 14.7187 2.66487 14.4733 2.41949L13.7093 1.65553C13.4639 1.41011 13.0661 1.41019 12.8207 1.65553C12.5754 1.90091 12.5754 2.29873 12.8207 2.54411L13.5847 3.30807Z" fill="#FE4B0C"/>
<path d="M19.7035 3.30808L20.4675 2.54413C20.7129 2.29879 20.7129 1.90097 20.4675 1.65555C20.2221 1.41012 19.8243 1.41017 19.5789 1.65555L18.8149 2.41951C18.5695 2.66485 18.5695 3.06266 18.8149 3.30808C19.0602 3.55342 19.458 3.55347 19.7035 3.30808Z" fill="#FE4B0C"/>
</g>
<defs>
<clipPath id="clip0_217_1362">
<rect width="21.4468" height="21.4468" fill="white"/>
</clipPath>
</defs>
</svg>
