<svg width="42" height="42" viewBox="0 0 42 42" fill="none" xmlns="http://www.w3.org/2000/svg">
<g clip-path="url(#clip0_227_3289)">
<path d="M30.9258 1.3125H25.9219C25.57 1.3125 25.2288 1.47213 25.0052 1.72216C24.9869 1.74267 23.1094 3.77344 21 3.77344C18.8792 3.77344 17.011 1.73988 16.9948 1.72216C16.7709 1.47139 16.427 1.3125 16.0781 1.3125H11.0742C4.96789 1.3125 0 6.28039 0 12.3867V19.7695C0 20.4491 0.550922 21 1.23047 21H7.38281V39.457C7.38281 40.1366 7.93373 40.6875 8.61328 40.6875H33.3867C34.0663 40.6875 34.6172 40.1366 34.6172 39.457V21H40.7695C41.4491 21 42 20.4491 42 19.7695V12.3867C42 6.28039 37.0321 1.3125 30.9258 1.3125ZM39.5391 18.5391H34.6172V14.8477C34.6172 14.1681 34.0663 13.6172 33.3867 13.6172C32.7072 13.6172 32.1562 14.1681 32.1562 14.8477V38.2266H9.84375V14.8477C9.84375 14.1681 9.29283 13.6172 8.61328 13.6172C7.93373 13.6172 7.38281 14.1681 7.38281 14.8477V18.5391H2.46094V12.3867C2.46094 7.63736 6.32486 3.77344 11.0742 3.77344H15.5685C16.4147 4.56873 18.4866 6.23438 21 6.23438C23.5133 6.23438 25.5853 4.56873 26.4315 3.77344H30.9258C35.6751 3.77344 39.5391 7.63736 39.5391 12.3867V18.5391Z" fill="#FE4B0C"/>
<path d="M25.9219 25.9219H24.6914V12.3867C24.6914 11.7072 24.1405 11.1562 23.4609 11.1562H18.5391C17.8595 11.1562 17.3086 11.7072 17.3086 12.3867C17.3086 13.0652 16.7566 13.6172 16.0781 13.6172C15.3986 13.6172 14.8477 14.1681 14.8477 14.8477V19.7695C14.8477 20.4491 15.3986 21 16.0781 21H17.3086V25.9219H16.0781C15.3986 25.9219 14.8477 26.4728 14.8477 27.1523V32.0742C14.8477 32.7538 15.3986 33.3047 16.0781 33.3047H25.9219C26.6014 33.3047 27.1523 32.7538 27.1523 32.0742V27.1523C27.1523 26.4728 26.6014 25.9219 25.9219 25.9219ZM24.6914 30.8438H17.3086V28.3828H18.5391C19.2186 28.3828 19.7695 27.8319 19.7695 27.1523V19.7695C19.7695 19.09 19.2186 18.5391 18.5391 18.5391H17.3086V15.8673C18.356 15.4959 19.1874 14.6646 19.5587 13.6172H22.2305V27.1523C22.2305 27.8319 22.7814 28.3828 23.4609 28.3828H24.6914V30.8438Z" fill="#FE4B0C"/>
</g>
<defs>
<clipPath id="clip0_227_3289">
<rect width="42" height="42" fill="white"/>
</clipPath>
</defs>
</svg>
